<svg xmlns="http://www.w3.org/2000/svg" viewBox="0 0 300 50">
  <path fill="#61dafb" d="M256.7,15.5l7.9,20.5c0.2,0.4,0.2,0.7,0,1c-0.2,0.2-0.5,0.4-0.9,0.4h-2.3c-0.4,0-0.7-0.2-0.9-0.6l-1.6-4.4
  c-0.1-0.4-0.4-0.6-0.9-0.6h-7.2c-0.4,0-0.7,0.2-0.9,0.6l-1.6,4.4c-0.2,0.4-0.4,0.6-0.9,0.6h-2.3c-0.4,0-0.7-0.1-0.9-0.4
  s-0.2-0.6,0-1l7.9-20.5c0.1-0.4,0.4-0.6,0.9-0.6h2.9C256.3,14.9,256.6,15.1,256.7,15.5z M252.8,27.9h3.1c0.4,0,0.7-0.1,0.9-0.4
  c0.2-0.2,0.2-0.5,0-0.9l-1.6-4.3c-0.3-0.7-0.6-1.1-0.9-1.1s-0.6,0.4-0.9,1.1l-1.6,4.3c-0.1,0.4-0.1,0.7,0,0.9
  C252.1,27.8,252.4,27.9,252.8,27.9z"/>
  <path fill="#61dafb" d="M269.6,14.9h2.2c0.3,0,0.5,0.1,0.7,0.3c0.2,0.2,0.3,0.4,0.3,0.7v20.5c0,0.3-0.1,0.5-0.3,0.7
  c-0.2,0.2-0.4,0.3-0.7,0.3h-2.2c-0.3,0-0.5-0.1-0.7-0.3c-0.2-0.2-0.3-0.4-0.3-0.7V15.9c0-0.3,0.1-0.5,0.3-0.7
  C269.1,15,269.3,14.9,269.6,14.9z"/>
  <path fill="#61dafb" d="M294.9,37.3h-2.5c-0.3,0-0.6-0.2-0.8-0.5l-4.1-7.2c-0.2-0.3-0.5-0.5-0.8-0.5h-3.8c-0.3,0-0.5,0.1-0.7,0.3
  c-0.2,0.2-0.3,0.4-0.3,0.7v6.3c0,0.3-0.1,0.5-0.3,0.7c-0.2,0.2-0.4,0.3-0.7,0.3h-2.2c-0.3,0-0.5-0.1-0.7-0.3
  c-0.2-0.2-0.3-0.4-0.3-0.7V15.9c0-0.3,0.1-0.5,0.3-0.7c0.2-0.2,0.4-0.3,0.7-0.3h9c1,0,1.9,0.2,2.8,0.5c0.8,0.4,1.6,0.9,2.3,1.5
  c0.6,0.6,1.1,1.4,1.5,2.2c0.4,0.9,0.5,1.8,0.5,2.8c0,1.3-0.3,2.5-1,3.6c-0.5,0.8-1.1,1.4-1.8,2c-0.2,0.2-0.4,0.4-0.4,0.6
  c-0.1,0.2,0,0.5,0.1,0.8l4,6.9c0.3,0.4,0.3,0.8,0.1,1S295.4,37.3,294.9,37.3z M287.7,25c0.9,0,1.6-0.3,2.1-0.9
  c0.6-0.6,0.9-1.3,0.9-2.1c0-0.4-0.1-0.8-0.2-1.2c-0.1-0.3-0.4-0.6-0.6-1c-0.3-0.3-0.6-0.5-1-0.6c-0.4-0.1-0.8-0.2-1.2-0.2h-4.9
  c-0.3,0-0.5,0.1-0.7,0.3c-0.2,0.2-0.3,0.4-0.3,0.7V24c0,0.3,0.1,0.5,0.3,0.7c0.2,0.2,0.4,0.3,0.7,0.3H287.7z"/>
  <path fill="#ffffff" d="M87.4,15.9v20.5c0,0.3-0.1,0.5-0.3,0.7c-0.2,0.2-0.4,0.3-0.7,0.3h-2.2c-0.3,0-0.5-0.1-0.7-0.3
  c-0.2-0.2-0.3-0.4-0.3-0.7v-7.2c0-0.3-0.1-0.5-0.3-0.7c-0.2-0.2-0.4-0.3-0.7-0.3h-7.6c-0.3,0-0.5,0.1-0.7,0.3
  c-0.2,0.2-0.3,0.4-0.3,0.7v7.2c0,0.3-0.1,0.5-0.3,0.7c-0.2,0.2-0.4,0.3-0.7,0.3h-2.2c-0.3,0-0.5-0.1-0.7-0.3
  c-0.2-0.2-0.3-0.4-0.3-0.7V15.9c0-0.3,0.1-0.5,0.3-0.7c0.2-0.2,0.4-0.3,0.7-0.3h2.2c0.3,0,0.5,0.1,0.7,0.3c0.2,0.2,0.3,0.4,0.3,0.7
  v7.2c0,0.3,0.1,0.5,0.3,0.7c0.2,0.2,0.4,0.3,0.7,0.3h7.6c0.3,0,0.5-0.1,0.7-0.3c0.2-0.2,0.3-0.4,0.3-0.7v-7.2
  c0-0.3,0.1-0.5,0.3-0.7c0.2-0.2,0.4-0.3,0.7-0.3h2.2c0.3,0,0.5,0.1,0.7,0.3C87.4,15.3,87.4,15.6,87.4,15.9z"/>
  <path fill="#ffffff" d="M111.4,16.4l-7.5,10.7c-0.1,0.2-0.2,0.4-0.2,0.5v8.7c0,0.3-0.1,0.5-0.3,0.7c-0.2,0.2-0.4,0.3-0.7,0.3h-2.2
  c-0.3,0-0.5-0.1-0.7-0.3c-0.2-0.2-0.3-0.4-0.3-0.7v-8.7c0-0.2-0.1-0.4-0.2-0.5L92,16.4c-0.3-0.4-0.4-0.8-0.3-1.1
  c0.1-0.3,0.5-0.4,1.1-0.4h2.7c0.4,0,0.6,0.1,0.8,0.4l4.7,6.7c0.2,0.3,0.5,0.5,0.8,0.5c0.3,0,0.6-0.2,0.8-0.5l4.7-6.7
  c0.2-0.3,0.4-0.4,0.8-0.4h2.6c0.6,0,0.9,0.1,1.1,0.4C111.8,15.6,111.7,16,111.4,16.4z"/>
  <path fill="#ffffff" d="M125.3,14.9c1,0,1.9,0.2,2.8,0.5c0.9,0.4,1.6,0.9,2.2,1.5c0.6,0.6,1.2,1.4,1.5,2.2c0.4,0.9,0.5,1.8,0.5,2.8
  c0,0.9-0.2,1.9-0.5,2.8c-0.4,0.9-0.9,1.6-1.5,2.3c-0.7,0.7-1.4,1.2-2.2,1.5c-0.9,0.4-1.8,0.6-2.8,0.6h-4.8c-0.3,0-0.5,0.1-0.7,0.3
  s-0.3,0.4-0.3,0.7v6.3c0,0.3-0.1,0.5-0.3,0.7c-0.2,0.2-0.4,0.3-0.7,0.3h-2.2c-0.3,0-0.5-0.1-0.7-0.3c-0.2-0.2-0.3-0.4-0.3-0.7V15.9
  c0-0.3,0.1-0.5,0.3-0.7c0.2-0.2,0.4-0.3,0.7-0.3H125.3z M125.3,25c0.4,0,0.8-0.1,1.2-0.3c0.4-0.2,0.7-0.4,1-0.6
  c0.3-0.3,0.5-0.6,0.6-0.9c0.1-0.3,0.2-0.7,0.2-1.2c0-0.4-0.1-0.8-0.2-1.2c-0.1-0.3-0.4-0.6-0.6-1c-0.3-0.3-0.6-0.5-1-0.6
  c-0.4-0.1-0.8-0.2-1.2-0.2h-4.8c-0.3,0-0.5,0.1-0.7,0.3c-0.2,0.2-0.3,0.4-0.3,0.7V24c0,0.3,0.1,0.5,0.3,0.7
  c0.2,0.2,0.4,0.3,0.7,0.3H125.3z"/>
  <path fill="#ffffff" d="M146.1,14.4c1.6,0,3.1,0.3,4.5,0.9c1.4,0.6,2.6,1.5,3.6,2.5c0.5,0.5,1,1.1,1.4,1.7c0.4,0.6,0.8,1.3,1.1,2
  c0.6,1.4,0.9,2.9,0.9,4.6c0,1.6-0.3,3.2-0.9,4.5c-0.6,1.5-1.4,2.7-2.5,3.7c-1.1,1.1-2.3,1.9-3.6,2.5c-1.4,0.6-2.9,0.9-4.5,0.9
  c-1.6,0-3-0.3-4.4-0.9c-0.7-0.3-1.4-0.7-2-1.1c-0.6-0.4-1.2-0.9-1.7-1.4c-1-1-1.9-2.3-2.5-3.7c-0.6-1.4-0.9-2.9-0.9-4.5
  c0-1.6,0.3-3.2,0.9-4.6c0.3-0.7,0.7-1.4,1.1-2c0.4-0.6,0.9-1.2,1.4-1.7c1.1-1.1,2.3-1.9,3.7-2.5C143,14.7,144.5,14.4,146.1,14.4z
  M146.1,33.7c1,0,2-0.2,2.9-0.6c0.9-0.4,1.7-1,2.4-1.6c0.6-0.6,1.2-1.5,1.6-2.4c0.4-0.9,0.6-1.9,0.6-2.9c0-1-0.2-2-0.6-3
  c-0.4-0.9-0.9-1.7-1.6-2.4c-0.7-0.7-1.5-1.2-2.4-1.6c-0.9-0.4-1.8-0.6-2.9-0.6c-1.1,0-2,0.2-2.9,0.6c-0.9,0.4-1.7,0.9-2.3,1.6
  c-0.7,0.7-1.2,1.5-1.6,2.4c-0.4,0.9-0.6,1.9-0.6,3c0,1,0.2,2,0.6,2.9c0.4,0.9,0.9,1.8,1.6,2.4c0.7,0.7,1.5,1.2,2.3,1.6
  C144,33.5,145,33.7,146.1,33.7z"/>
  <path fill="#ffffff" d="M171.2,14.9c1,0,1.9,0.2,2.8,0.5c0.9,0.4,1.6,0.9,2.2,1.5c0.6,0.6,1.2,1.4,1.5,2.2c0.4,0.9,0.5,1.8,0.5,2.8
  c0,0.9-0.2,1.9-0.5,2.8c-0.4,0.9-0.9,1.6-1.5,2.3c-0.7,0.7-1.4,1.2-2.2,1.5c-0.9,0.4-1.8,0.6-2.8,0.6h-4.8c-0.3,0-0.5,0.1-0.7,0.3
  s-0.3,0.4-0.3,0.7v6.3c0,0.3-0.1,0.5-0.3,0.7c-0.2,0.2-0.4,0.3-0.7,0.3h-2.2c-0.3,0-0.5-0.1-0.7-0.3c-0.2-0.2-0.3-0.4-0.3-0.7V15.9
  c0-0.3,0.1-0.5,0.3-0.7c0.2-0.2,0.4-0.3,0.7-0.3H171.2z M171.2,25c0.4,0,0.8-0.1,1.2-0.3c0.4-0.2,0.7-0.4,1-0.6s0.5-0.6,0.6-0.9
  c0.1-0.3,0.2-0.7,0.2-1.2c0-0.4-0.1-0.8-0.2-1.2c-0.1-0.3-0.4-0.6-0.6-1c-0.3-0.3-0.6-0.5-1-0.6c-0.4-0.1-0.8-0.2-1.2-0.2h-4.8
  c-0.3,0-0.5,0.1-0.7,0.3c-0.2,0.2-0.3,0.4-0.3,0.7V24c0,0.3,0.1,0.5,0.3,0.7c0.2,0.2,0.4,0.3,0.7,0.3H171.2z"/>
  <path fill="#ffffff" d="M192,14.4c1.6,0,3.1,0.3,4.5,0.9c1.4,0.6,2.6,1.5,3.6,2.5c0.5,0.5,1,1.1,1.4,1.7s0.8,1.3,1.1,2
  c0.6,1.4,0.9,2.9,0.9,4.6c0,1.6-0.3,3.2-0.9,4.5c-0.6,1.5-1.4,2.7-2.5,3.7c-1.1,1.1-2.3,1.9-3.6,2.5c-1.4,0.6-2.9,0.9-4.5,0.9
  c-1.6,0-3-0.3-4.4-0.9c-0.7-0.3-1.4-0.7-2-1.1c-0.6-0.4-1.2-0.9-1.7-1.4c-1-1-1.9-2.3-2.5-3.7c-0.6-1.4-0.9-2.9-0.9-4.5
  c0-1.6,0.3-3.2,0.9-4.6c0.3-0.7,0.7-1.4,1.1-2s0.9-1.2,1.4-1.7c1.1-1.1,2.3-1.9,3.7-2.5C188.9,14.7,190.4,14.4,192,14.4z
  M191.9,33.7c1,0,2-0.2,2.9-0.6c0.9-0.4,1.7-1,2.4-1.6c0.6-0.6,1.2-1.5,1.6-2.4c0.4-0.9,0.6-1.9,0.6-2.9c0-1-0.2-2-0.6-3
  c-0.4-0.9-0.9-1.7-1.6-2.4c-0.7-0.7-1.5-1.2-2.4-1.6c-0.9-0.4-1.8-0.6-2.9-0.6c-1.1,0-2,0.2-2.9,0.6c-0.9,0.4-1.7,0.9-2.3,1.6
  c-0.7,0.7-1.2,1.5-1.6,2.4c-0.4,0.9-0.6,1.9-0.6,3c0,1,0.2,2,0.6,2.9c0.4,0.9,0.9,1.8,1.6,2.4c0.7,0.7,1.5,1.2,2.3,1.6
  C189.9,33.5,190.9,33.7,191.9,33.7z"/>
  <path fill="#ffffff" d="M224.5,37.3H222c-0.3,0-0.6-0.2-0.8-0.5l-4.1-7.2c-0.2-0.3-0.5-0.5-0.8-0.5h-3.8c-0.3,0-0.5,0.1-0.7,0.3
  s-0.3,0.4-0.3,0.7v6.3c0,0.3-0.1,0.5-0.3,0.7c-0.2,0.2-0.4,0.3-0.7,0.3h-2.2c-0.3,0-0.5-0.1-0.7-0.3c-0.2-0.2-0.3-0.4-0.3-0.7V15.9
  c0-0.3,0.1-0.5,0.3-0.7c0.2-0.2,0.4-0.3,0.7-0.3h9c1,0,1.9,0.2,2.8,0.5c0.8,0.4,1.6,0.9,2.3,1.5c0.6,0.6,1.1,1.4,1.5,2.2
  c0.4,0.9,0.5,1.8,0.5,2.8c0,1.3-0.3,2.5-1,3.6c-0.5,0.8-1.1,1.4-1.8,2c-0.2,0.2-0.4,0.4-0.4,0.6c-0.1,0.2,0,0.5,0.1,0.8l4,6.9
  c0.3,0.4,0.3,0.8,0.1,1S225,37.3,224.5,37.3z M217.2,25c0.9,0,1.6-0.3,2.1-0.9c0.6-0.6,0.9-1.3,0.9-2.1c0-0.4-0.1-0.8-0.2-1.2
  c-0.1-0.3-0.4-0.6-0.6-1c-0.3-0.3-0.6-0.5-1-0.6c-0.4-0.1-0.8-0.2-1.2-0.2h-4.9c-0.3,0-0.5,0.1-0.7,0.3c-0.2,0.2-0.3,0.4-0.3,0.7
  V24c0,0.3,0.1,0.5,0.3,0.7c0.2,0.2,0.4,0.3,0.7,0.3H217.2z"/>
  <path fill="#ffffff" d="M228.9,14.9h16.3c0.3,0,0.5,0.1,0.7,0.3c0.2,0.2,0.3,0.4,0.3,0.7V18c0,0.3-0.1,0.5-0.3,0.7
  c-0.2,0.2-0.4,0.3-0.7,0.3h-5.1c-0.3,0-0.5,0.1-0.7,0.3c-0.2,0.2-0.3,0.4-0.3,0.7v16.4c0,0.3-0.1,0.5-0.3,0.7
  c-0.2,0.2-0.4,0.3-0.7,0.3H236c-0.3,0-0.5-0.1-0.7-0.3c-0.2-0.2-0.3-0.4-0.3-0.7V20c0-0.3-0.1-0.5-0.3-0.7
  c-0.2-0.2-0.4-0.3-0.7-0.3h-5.1c-0.3,0-0.5-0.1-0.7-0.3c-0.2-0.2-0.3-0.4-0.3-0.7v-2.2c0-0.3,0.1-0.5,0.3-0.7
  C228.4,15,228.6,14.9,228.9,14.9z"/>
  <path id="logo" fill="#61dafb" d="M57.7,8.2c-0.3-0.5-0.7-0.9-1.4-1.1c-1.7-0.5-4.5,0.3-8.3,2.4l-9.2,5.1L21.9,4c0,0-0.1-0.1-0.2-0.1
  c-0.3-0.1-0.5-0.1-0.8,0.1l-2.5,1.3c-0.2,0.1-0.4,0.3-0.5,0.6c-0.1,0.4,0,0.8,0.3,1l12.3,11.8l-3.9,2.2c-0.2-0.3-0.4-0.6-0.6-0.9
  l-3.2-3.9l-1.2-1.2c-2.8-2.6-5.6-4-7.7-4c-0.6,0-1.2,0.1-1.7,0.4c-2.2,1.2-2.6,5.1-1.5,10c-4.8,1.5-7.9,3.8-7.9,6.3
  c0,2.5,3.1,4.9,7.9,6.3c-1.1,4.9-0.6,8.8,1.6,10c0.5,0.3,1.1,0.4,1.7,0.4c2.1,0,4.9-1.5,7.7-4.1c2.8,2.6,5.6,4.1,7.7,4.1
  c0.6,0,1.2-0.1,1.7-0.4c2.2-1.2,2.5-5.3,1.4-10.2c-0.1-0.2-0.2-0.6-0.3-1.4c0,0,0-0.1,0-0.1c-0.3-1.3-1-3.3-2-5.5l3.9-2.2l3.6,16.9
  c0.1,0.4,0.3,0.7,0.7,0.8c0.3,0.1,0.5,0.1,0.8-0.1l2.5-1.3c0.2-0.1,0.4-0.3,0.5-0.6l0-0.2l0.2-19.4l9.2-5.1c3.8-2.1,6-4,6.5-5.7
  C58,9.3,57.9,8.8,57.7,8.2z M23.8,19.8c-0.7,0-1.4-0.1-2.1-0.1c-0.7,0-1.4,0-2.1,0.1c0.7-0.9,1.4-1.7,2.1-2.5
  C22.4,18.1,23.1,18.9,23.8,19.8z M13.1,12.8c0.2-0.1,0.5-0.2,0.9-0.2c1.6,0,3.9,1.3,6.5,3.6c-1.1,1.1-2.2,2.4-3.2,3.8
  c-1.7,0.2-3.4,0.5-4.9,0.8c-0.2-0.8-0.3-1.5-0.4-2.2C11.6,15.7,12,13.4,13.1,12.8z M12.8,22.5c1-0.2,2.1-0.4,3.2-0.6
  c-0.4,0.6-0.8,1.2-1.1,1.8c-0.4,0.6-0.7,1.2-1,1.9C13.4,24.5,13,23.5,12.8,22.5z M14.8,31.6c0.4,0.6,0.7,1.2,1.1,1.8
  c-1.1-0.2-2.2-0.4-3.2-0.6c0.3-1,0.6-2,1-3C14.1,30.3,14.5,31,14.8,31.6z M11.1,32.3c-0.8-0.2-1.5-0.5-2.2-0.8
  c-2.7-1.2-4.5-2.7-4.5-3.9c0-1.2,1.8-2.7,4.5-3.9c0.7-0.3,1.4-0.5,2.1-0.8c0.4,1.5,1,3.1,1.7,4.7C12.1,29.3,11.5,30.8,11.1,32.3z
  M14,42.8c-0.3,0-0.6-0.1-0.9-0.2c-1-0.6-1.5-2.9-1.1-5.8c0.1-0.7,0.2-1.5,0.4-2.3c1.5,0.4,3.2,0.7,4.9,0.8c1,1.4,2.1,2.7,3.2,3.9
  C17.9,41.5,15.6,42.8,14,42.8z M21.7,37.9c-0.7-0.7-1.4-1.6-2.1-2.5c0.7,0,1.4,0.1,2.1,0.1c0.7,0,1.4,0,2.1-0.1
  C23.1,36.4,22.4,37.2,21.7,37.9z M31.4,36.7c0.4,2.9-0.1,5.2-1.1,5.8c-0.2,0.1-0.5,0.2-0.9,0.2c-1.6,0-4-1.3-6.5-3.6
  c1.1-1.1,2.2-2.4,3.2-3.8c1.7-0.2,3.4-0.5,4.9-0.8C31.2,35.2,31.3,36,31.4,36.7z M27.4,33.4c0.4-0.6,0.8-1.2,1.1-1.8
  c0.4-0.6,0.7-1.2,1-1.9c0.4,1,0.8,2.1,1.1,3.1C29.5,33,28.5,33.2,27.4,33.4z M27,30.7c-0.6,1-1.2,2-1.9,2.9
  c-1.1,0.1-2.3,0.2-3.5,0.2c-1.2,0-2.3-0.1-3.5-0.1c-0.6-0.9-1.3-1.9-1.9-2.9c-0.6-1-1.1-2-1.6-3.1c0.5-1,1-2.1,1.6-3.1
  c0.6-1,1.2-2,1.9-2.9c1.1-0.1,2.3-0.2,3.5-0.2c1.2,0,2.3,0.1,3.5,0.1c0,0,0,0,0,0.1l-4.8,2.7c-1.3,0.5-2.2,1.8-2.2,3.3
  c0,1.9,1.6,3.5,3.5,3.5c0.5,0,1-0.1,1.4-0.3l5.5-3.1C28.1,28.7,27.6,29.7,27,30.7z"/>
</svg>
